<?xml version="1.0" standalone="no"?>
<!DOCTYPE svg PUBLIC "-//W3C//DTD SVG 20010904//EN"
 "http://www.w3.org/TR/2001/REC-SVG-20010904/DTD/svg10.dtd">
<svg version="1.0" xmlns="http://www.w3.org/2000/svg"
 width="168.000000pt" height="148.000000pt" viewBox="0 0 168.000000 148.000000"
 preserveAspectRatio="xMidYMid meet">

<g transform="translate(0.000000,148.000000) scale(0.100000,-0.100000)"
fill="#000000" stroke="none">
<path d="M240 748 l0 -238 60 0 60 0 0 234 0 234 -60 4 -60 3 0 -237z"/>
<path d="M710 983 c-43 -2 -78 -9 -82 -16 -4 -6 -10 -47 -14 -90 -4 -42 -11
-80 -15 -83 -5 -3 -9 4 -9 15 0 11 -5 54 -11 96 l-11 75 -84 0 -84 0 0 -235 0
-235 55 0 55 0 0 137 c0 75 3 134 6 131 3 -3 12 -50 19 -104 26 -178 21 -164
64 -164 l39 0 12 88 c26 192 28 195 29 50 l1 -138 55 0 55 0 0 240 c0 132 -1
239 -2 238 -2 -1 -37 -4 -78 -5z"/>
<path d="M1228 982 l-58 -3 0 -234 0 -235 60 0 c35 0 60 4 60 11 0 5 10 3 22
-5 34 -24 85 -20 113 9 24 23 25 29 25 159 0 133 0 135 -26 155 -33 26 -96 28
-115 4 -12 -14 -15 -6 -19 63 l-5 79 -57 -3z m100 -300 c3 -97 2 -102 -18
-102 -19 0 -20 6 -20 98 0 54 3 102 7 106 20 19 28 -8 31 -102z"/>
<path d="M830 745 l0 -235 123 0 c174 0 167 -10 167 236 0 244 7 234 -168 234
l-122 0 0 -235z m168 20 c3 -143 -1 -175 -23 -175 -13 0 -15 25 -15 156 0 143
1 155 18 152 15 -3 17 -19 20 -133z"/>
</g>
</svg>
